<?xml version="1.0" encoding="utf-8"?>
<!-- Generator: Adobe Illustrator 25.2.1, SVG Export Plug-In . SVG Version: 6.00 Build 0)  -->
<svg version="1.1" id="Layer_1" xmlns="http://www.w3.org/2000/svg" xmlns:xlink="http://www.w3.org/1999/xlink" x="0px" y="0px"
	 viewBox="0 0 1149 338" style="enable-background:new 0 0 1149 338;" xml:space="preserve">
<style type="text/css">
	.st0{fill:#A2A9AD;}
	.st1{fill:#1D8649;}
	.st2{fill:#005CB9;}
</style>
<path class="st0" d="M78.3,299.6c0-8.5-3.5-14.9-10.4-18.9c-5.3-3.1-15.5-6-31-8.7c-7.8-1.3-13.3-2.8-16.3-4.4c-3.9-2-5.8-4.9-5.8-9
	c0-3.1,0-12.6,24.1-12.6c8.3,0,14.6,1.1,18.6,3.3c4.5,2.5,7.1,7.8,7.6,15.8l0.1,1.6h11.4l0-1.7c-0.3-19.9-13-29.9-37.7-29.9
	c-23.7,0-35.8,7.9-35.8,23.6c0,8.4,4.3,14.8,12.7,19c4,2,11.2,4.1,22.1,6.4c9.2,1.9,15,3.2,17.5,3.9c4.1,1.1,7.1,2.5,8.7,4.1
	c1.8,1.6,2.7,4.1,2.7,7.4c0,4.8-2.6,8.4-8,10.8c-4.5,2-10.4,3-17.4,3c-19.7,0-29.3-6.4-29.3-19.5v-5.1H0.4v5.6
	c0,10.8,4.5,18.9,13.5,24c6.9,4,16.1,6.1,27.3,6.1c9.1,0,17.1-1.6,23.6-4.8C73.8,314.9,78.3,308.3,78.3,299.6"/>
<polygon class="st0" points="127.7,236.7 85.7,324 98.7,324 110.9,298.1 138.1,298.1 143.5,287.1 116.3,287.1 132.2,254.4 
	164.4,324 177.3,324 136.8,236.7 "/>
<polygon class="st0" points="673.5,236.7 631.5,324 644.5,324 656.7,298.1 683.9,298.1 689.3,287.1 662.1,287.1 678,254.4 
	710.2,324 723.1,324 682.6,236.7 "/>
<path class="st0" d="M224.3,313c-18.3,0-26.8-7.5-26.8-23.5v-53.7h-11.6v53.8c0,22.8,13,34.4,38.5,34.4c12.4,0,21.9-2.7,28.2-7.9
	c6.8-5.6,10.3-14.4,10.3-26.2v-54.1h-11.6V290C251.1,305.7,242.6,313,224.3,313"/>
<path class="st0" d="M361.1,280.5c0-13.6-3.7-24.3-11.1-31.9c-7.7-7.9-18.9-11.9-33.3-11.9h-36.4V324H312c14.8,0,26.6-3.7,35.2-10.9
	C356.4,305.5,361.1,294.5,361.1,280.5 M339.9,304.8c-6.5,5.5-15.7,8.2-27.5,8.2H292v-65.3h24.6c11.2,0,19.5,2.8,24.9,8.3
	c5.3,5.5,8,13.8,8,24.5C349.5,291.3,346.3,299.3,339.9,304.8"/>
<rect x="376.8" y="236.7" class="st0" width="11.6" height="87.3"/>
<polygon class="st0" points="473.4,284 524.5,284 524.5,273.2 473.4,273.2 473.4,247.7 531.1,247.7 531.1,236.7 461.9,236.7 
	461.9,324 531.7,324 531.7,313 473.4,313 "/>
<path class="st0" d="M584.8,273c-12.7-14.8-22.7-26.9-29.8-35.7l-0.5-0.7h-10.5V324h11.6v-68.1l1.5,1.7l55.4,66.3h10.6v-87.3h-11.6
	v67.8l-1.4-1.7C604.5,296.1,596.5,286.6,584.8,273"/>
<polygon class="st0" points="789.1,236.7 755.5,272.2 722,236.7 706.6,236.7 749.8,282.8 749.8,324 761.4,324 761.4,282.8 
	804.4,236.7 "/>
<polygon class="st0" points="829.9,236.7 787.9,324 800.9,324 813.1,298.1 840.3,298.1 845.7,287.1 818.5,287.1 834.4,254.4 
	866.6,324 879.5,324 839,236.7 "/>
<path class="st0" d="M119.3,197.5c-4,0-7,3.1-7,7c0,4.1,2.9,7.2,6.8,7.2h0.1c4,0,6.9-3.1,6.9-7.2
	C126.2,200.6,123.2,197.5,119.3,197.5"/>
<path class="st0" d="M101.5,197.5c-3.9,0-6.9,3.1-6.9,7c0,4.1,2.9,7.2,6.8,7.2h0.1c3.9,0,6.8-3.1,6.8-7.2
	C108.3,200.6,105.4,197.5,101.5,197.5"/>
<path class="st0" d="M670.3,197.5c-4,0-7,3.1-7,7c0,4.1,2.9,7.2,6.8,7.2h0.1c4,0,6.9-3.1,6.9-7.2
	C677.1,200.6,674.2,197.5,670.3,197.5"/>
<path class="st0" d="M652.5,197.5c-3.9,0-6.9,3.1-6.9,7c0,4.1,2.9,7.2,6.8,7.2h0.1c3.9,0,6.8-3.1,6.8-7.2
	C659.3,200.6,656.3,197.5,652.5,197.5"/>
<path class="st0" d="M599.3,110.9c-4,0-7,3.1-7,7c0,4.1,2.9,7.2,6.8,7.2h0.1c4,0,6.9-3.1,6.9-7.2C606.1,114,603.2,110.9,599.3,110.9
	"/>
<path class="st0" d="M581.4,110.9c-3.9,0-6.9,3.1-6.9,7c0,4.1,2.9,7.2,6.8,7.2h0.1c3.9,0,6.8-3.1,6.8-7.2
	C588.3,114,585.3,110.9,581.4,110.9"/>
<path class="st0" d="M769.5,110.9c-4,0-7,3.1-7,7c0,4.1,2.9,7.2,6.8,7.2h0.1c4,0,6.9-3.1,6.9-7.2C776.4,114,773.4,110.9,769.5,110.9
	"/>
<path class="st0" d="M48.3,110.9c-4,0-7,3.1-7,7c0,4.1,2.9,7.2,6.8,7.2h0.1c4,0,6.9-3.1,6.9-7.2C55.1,114,52.2,110.9,48.3,110.9"/>
<path class="st0" d="M30.5,110.9c-3.9,0-6.9,3.1-6.9,7c0,4.1,2.9,7.2,6.8,7.2h0.1c3.9,0,6.8-3.1,6.8-7.2
	C37.3,114,34.4,110.9,30.5,110.9"/>
<path class="st0" d="M195.2,189.7l-7.4-33c-3.4-14.8-12.4-22.9-25.2-22.9c-7.9,0-14.5,4-16.3,5.3l-1,0.7l2.5,10.8l2.1-1.5
	c2.9-2,7.4-4.2,11.5-4.2c7.6,0,12.3,4.6,14.1,13.8l4.4,19.9h-42.6l-4.7,11.1H195.2z"/>
<path class="st0" d="M450.7,189.7c2.2,0,9.7-0.5,14.4-7.6l0.6-0.9l0.7,0.9c3.9,5,9.4,7.6,16.3,7.7c8.6,0,18.7-6.3,18.7-24v-54.7
	h-12.8v53.6c0,11.6-5,14-9.2,14.1c-6.4-0.2-10.2-5.9-10.1-11.2v-33.6h-12.8v30.7c0,11.6-5.1,14.1-9.3,14.1c-6.1,0-9.8-5.9-9.8-11.3
	V139h-12.8v27.4c0,7.8-3.2,12.2-8.7,12.2c-6.3,0-10.2-5.9-10.2-11.3v-24H393v23.1c0,3.7-0.9,12.2-9,12.2l-67.2-0.1
	c-8.5-3.4-13.6-12-13.6-22.8c0-12.4,7.2-24.9,23.2-24.9c5.2,0,9.8,1,14,3.1l0.6,0.3l3-10.4l-0.4-0.2c-3.1-1.7-9.5-3.7-17.2-3.7
	c-21.6,0-36.7,15-36.7,36.4c0,7.9,2.1,15.2,6,21l0.9,1.3h-41.7v-18.9c0-17.4-7.4-25.9-22.7-25.9c-15.2,0-25.9,12.1-25.9,29.3
	c0,15.9,10.7,26.6,26.6,26.6h8.8l-0.1,0.9c-0.9,7.5-3.9,9.3-11.9,10.7l-1.7,0.3l1.6,10.5l2,0c6.3,0,12.2-2.4,16.5-6.7
	c3.9-3.9,6.2-9.1,6.7-15l0.1-0.8h132.9c5.7,0,10.8-2.7,14-7.5l0.6-0.9l0.7,0.9c4,5,9.5,7.5,16.2,7.5c5.7,0,10.9-2.7,14-7.4l0.6-0.9
	l0.7,0.9C438.3,187.2,443.8,189.7,450.7,189.7 M242,178.6h-6.9c-11,0-16.4-5.3-16.5-16.3c-0.2-6.6,1.4-11.8,4.6-15
	c2.2-2.2,5-3.4,8.1-3.4c7.9,0,10.8,6.4,10.8,12.4V178.6z"/>
<rect x="513.4" y="110.9" class="st0" width="12.8" height="78.8"/>
<path class="st0" d="M579.7,183.2c0.3,0,0.6,0,1,0l0.5,0c1.1,0,2.5,0,4.5,0l0.9,0l7.4-10.9l-3.4,0.1c-0.8,0-2.1,0-3.4,0l-6.4,0
	c-3.9,0-16.6-1-16.6-13.5c0-12.9,11.7-14.3,16.7-14.3h16.2v20.8c0,1.1,0.1,10.8,3.8,16c4.4,6.1,11.7,8.3,16.7,8.3h40.8
	c8.6,0,18.7-6.3,18.7-24v-31.9h-12.8v30.7c0,11.6-5.1,14.1-9.3,14.1h-36.4c-6.2,0-8.6-4-8.6-14.1v-30.6h-26.6
	c-20.1,0-32.1,9.4-32.1,25.2C551.1,176.9,566.5,183.2,579.7,183.2"/>
<path class="st0" d="M707.5,189.7h50.7c5.8,0,10.9-2.7,14.1-7.5l0.6-0.9l0.7,0.8c4.2,5,9.6,7.6,16.2,7.6h84.4l5.4-11.1l-35.5-0.1
	c-8.5-3.4-13.7-12-13.7-22.8c0-12.4,7.2-24.9,23.2-24.9c5.2,0,9.8,1,14,3.1l0.6,0.3l3-10.4l-0.4-0.2c-3.1-1.7-9.5-3.7-17.2-3.7
	c-21.6,0-36.7,15-36.7,36.4c0,7.9,2.1,15.2,6,21l0.8,1.3h-37.1c-3.3,0-5.6-1.7-7-3.1c-2.1-2.2-3.3-5.2-3.2-8.2v-33.5h-12.8v32.6
	c0,7.7-3.3,12.2-8.9,12.2h-45c-2.4,0-8.7,0-8.7-14.1v-53.6h-12.8v54.7C688.2,183.4,698.6,189.7,707.5,189.7"/>
<path class="st0" d="M28.7,183.2c0.3,0,0.6,0,1,0l0.5,0c1.1,0,2.5,0,4.5,0l0.9,0l7.4-10.9l-3.4,0.1c-0.8,0-2.1,0-3.4,0l-6.4,0
	c-3.9,0-16.6-1-16.6-13.5c0-12.9,11.7-14.3,16.7-14.3h16.2v20.8c0,1.1,0,10.7,3.8,16c4.4,6.1,11.7,8.3,16.7,8.3h40.8
	c8.6,0,18.7-6.3,18.7-24v-31.9h-12.8v30.7c0,11.6-5.1,14.1-9.3,14.1H67.6c-6.2,0-8.7-4-8.7-14.1v-30.6H32.3
	c-20.1,0-32.1,9.4-32.1,25.2C0.2,176.9,15.6,183.2,28.7,183.2"/>
<path class="st1" d="M940.6,150.6c0,0-2.1,3.6-3.1,5.1c-15,25.5-19.9,55.4-14.7,83.7h0.1c4.2,21.7,14.3,42.4,30.5,59.7l0,0.1l0.2,0
	c0.8,0.9,1.7,1.8,2.5,2.7c14.6,14.6,31.7,25.1,50.2,30.7c0.8,0.2,1.6,0.5,2.4,0.7c0.4,0.1,0.9,0.3,1.4,0.4
	c31,8.3,64.6,4.2,92.9-12.6c1.3-0.7,1.7-1,3-1.9l1.4-0.9c6.8-4.1,18-3.2,18-3.2c12.5,1.1,23.1,8.7,23.1,8.7l-39-39
	c0,0-5.1-5.6-14.6-5.8c0,0-7.2-0.2-11.9,2.6l-0.4,0.3c-0.8,0.5-1.1,0.7-2,1.2c-23.6,14-53.1,14.1-76.9,0.6c-0.7-0.4-1.3-0.7-2-1.1
	c-0.5-0.3-1-0.6-1.5-1l0,0c0,0,0,0-0.1-0.1c-4.7-2.9-9.1-6.5-13.1-10.5c-3.5-3.5-6.6-7.2-9.3-11.2c-0.2-0.5-0.4-1-0.7-1.4
	c-0.5-0.8-1-1.6-1.5-2.4c-14.2-24-14.2-54,0-78c0.5-0.8,1-1.6,1.5-2.4l0,0c6.8-10.5,1.5-21.4,1.5-21.4c-2-4.9-13.8-15.2-13.8-15.2
	l-28.2-28.2c0,0,6.7,7.9,7.5,22.5C944,133.4,944.7,143.4,940.6,150.6"/>
<path class="st2" d="M979.3,113.1c14.6-8.6,31.1-13,47.5-13c8.2,0,16.4,1.1,24.4,3.2c0.4,0.1,0.7,0.2,1.1,0.3
	c0.6,0.2,1.2,0.3,1.8,0.5c14.3,4.4,27.5,12.5,38.8,23.8c0.7,0.6,1.3,1.3,2,2l0.2,0l-0.1,0.2c12.5,13.3,20.3,29.3,23.6,46.1v-0.1
	c4.1,22,0.3,45.1-11.3,64.9c-0.6,1-0.9,1.6-1.9,2.9l-0.2,0.2c-4.5,6.4-3,14.2-3,14.2c1.4,9.4,5.8,17.3,5.8,17.3l-21.8-21.8
	c0,0-7.4-7.1-10.5-13.5c0,0-3.8-8,1-14.9l0.1-0.1c0.5-0.6,0.7-1.1,1.1-1.7c11-18.5,11-41.8,0-60.4c-0.3-0.6-0.7-1.2-1.2-1.8h0
	c-0.1-0.3-0.4-0.7-0.5-1.1c-2.1-3.1-4.5-6-7.2-8.7c-3.1-3.2-6.5-5.8-10.1-8.2c-0.1,0-0.1-0.1-0.1-0.1v0c-0.4-0.2-0.7-0.5-1.1-0.8
	c-0.6-0.3-1.1-0.6-1.6-0.8c-18.3-10.5-41.2-10.4-59.5,0.4l-1.9,1.1c-3.4,2.1-9.2,1.8-9.2,1.8c-5.5-0.5-10.1-3.5-12.9-5.9
	c-1.6-1.4-28.6-28.6-28.6-28.6s8.5,5.3,17.9,6.7c0,0,8.3,1.2,14.2-2.6L979.3,113.1z"/>
<path class="st2" d="M1034.7,76.9c21.2,0,38.5-17.2,38.5-38.5c0-21.2-17.2-38.5-38.5-38.5c-21.2,0-38.5,17.2-38.5,38.5
	C996.2,59.7,1013.5,76.9,1034.7,76.9"/>
</svg>
