<?xml version="1.0" encoding="UTF-8"?>
<svg xmlns="http://www.w3.org/2000/svg" version="1.1" xmlns:xlink="http://www.w3.org/1999/xlink" viewBox="0 0 255.6 108.1">
  <defs>
    <style>
      .cls-1 {
        fill: #fff;
      }

      .cls-2 {
        fill: #6dcff6;
      }

      .cls-3 {
        fill: #24489a;
      }

      .cls-4 {
        fill: #25afe5;
      }

      .cls-5 {
        fill: url(#linear-gradient);
      }
    </style>
    <linearGradient id="linear-gradient" x1="2" y1="54" x2="105.5" y2="54" gradientUnits="userSpaceOnUse">
      <stop offset="0" stop-color="#25afe5"/>
      <stop offset="1" stop-color="#24489a"/>
    </linearGradient>
  </defs>
  <!-- Generator: Adobe Illustrator 28.6.0, SVG Export Plug-In . SVG Version: 1.2.0 Build 709)  -->
  <g>
    <g id="Layer_1">
      <g>
        <g>
          <g>
            <path class="cls-3" d="M125,35.9c.7-.1,1.6-.2,2.5-.2,2.4,0,4.4.8,5.9,2.4,1.3,1.4,2,3.2,2,5.3v3.9c0,1-.4,1.8-1.1,2.5-.7.7-1.4,1-2.4,1h-10.2v-3.2h9c.5,0,.8-.3.8-.8v-3c0-1.5-.4-2.6-1.3-3.5s-2-1.3-3.6-1.3c-.7,0-1.3,0-1.6.1v-3.1Z"/>
            <path class="cls-3" d="M143.4,27.9v18.7c0,.2,0,.4.2.5.1.2.3.3.6.3h.8v3.2h-2.1c-.9,0-1.6-.3-2.3-.9-.8-.7-1.1-1.6-1.1-2.6v-19.3h3.9Z"/>
            <path class="cls-3" d="M150.7,47.4v3.2h-5.9v-3.2h5.9Z"/>
            <path class="cls-3" d="M156.4,47.4v3.2h-5.9v-3.2h5.9Z"/>
            <path class="cls-3" d="M162,47.4v3.2h-5.9v-3.2h5.9Z"/>
            <path class="cls-3" d="M167.7,47.4v3.2h-5.9v-3.2h5.9Z"/>
            <path class="cls-3" d="M173.3,47.4v3.2h-5.9v-3.2h5.9Z"/>
            <path class="cls-3" d="M179,47.4v3.2h-5.9v-3.2h5.9Z"/>
            <path class="cls-3" d="M184.7,47.4v3.2h-5.9v-3.2h5.9Z"/>
            <path class="cls-3" d="M190.3,47.4v3.2h-5.9v-3.2h5.9Z"/>
            <path class="cls-3" d="M196,47.4v3.2h-5.9v-3.2h5.9Z"/>
            <path class="cls-3" d="M200,36.6c2-.6,3.9-.9,5.5-.9,2.6,0,4.6.8,6.2,2.4,1.4,1.4,2.1,3.3,2.1,5.5v3.9h1.1v3.2h-.7l-1.1-1.3h0c-.7.9-1.6,1.3-2.7,1.3h-14.6v-3.2h13.4c.5,0,.8-.3.8-.8v-2.9c0-1.4-.5-2.6-1.4-3.5-1-.9-2.2-1.3-3.8-1.3s-2.6.2-4.7.7v-3.1Z"/>
            <path class="cls-3" d="M224.2,36.1v11.1c0,.8-.3,1.6-.8,2.3-.7.8-1.6,1.2-2.6,1.2h-6.1v-3.2h4.9c.2,0,.4,0,.6-.3.1-.1.2-.3.2-.5v-10.6h3.9ZM217.7,29.1c.6,0,1.1.2,1.5.6.4.4.6.9.6,1.5s-.2,1-.6,1.4-.9.6-1.5.6-1.1-.2-1.5-.6c-.4-.4-.6-.9-.6-1.4s.2-1.1.6-1.5.9-.6,1.5-.6ZM222.5,29.1c.6,0,1.1.2,1.5.6.4.4.6.9.6,1.5s-.2,1-.6,1.4-.9.6-1.5.6-1-.2-1.4-.6c-.4-.4-.6-.9-.6-1.4s.2-1.1.6-1.5.9-.6,1.4-.6Z"/>
            <path class="cls-3" d="M245.7,27.9v19.3c0,.9-.3,1.7-.9,2.3-.7.8-1.5,1.2-2.5,1.2h-12.8l-1.6-2v-1.3h7.7l-5.3-15.6h3.6l5.3,15.6h1.7c.3,0,.5,0,.6-.3.1-.2.2-.4.2-.5v-18.7h3.9Z"/>
            <path class="cls-3" d="M254,27.9v22l-2,1.6h-1.9v-23.6h3.9Z"/>
          </g>
          <g>
            <path class="cls-4" d="M134.5,76.7h-7.2l-1.3,3.9h-4l6.8-19.3h4.4l6.7,19.3h-4.1l-1.3-3.9ZM133.4,73.4l-2.5-7.5-2.5,7.5h5Z"/>
            <path class="cls-4" d="M146.3,61.3v16h9.2v3.3h-13.2v-19.3h4Z"/>
            <path class="cls-4" d="M161.9,72.3v5h10.4v3.3h-14.4v-19.3h13.9v3.3h-10v4.4h9.2v3.3h-9.2Z"/>
            <path class="cls-4" d="M183.7,64.6v16h-4v-16h-5.9v-3.3h15.4v3.3h-5.6Z"/>
            <path class="cls-4" d="M195.6,61.3v19.3h-4v-19.3h4Z"/>
            <path class="cls-4" d="M211.2,71.8h-7.6v8.7h-4v-19.3h4v7.2h7.6v-7.2h4v19.3h-4v-8.7Z"/>
            <path class="cls-4" d="M230.3,76.7h-7.2l-1.3,3.9h-4l6.8-19.3h4.4l6.7,19.3h-4.1l-1.3-3.9ZM229.2,73.4l-2.5-7.5-2.5,7.5h5Z"/>
            <path class="cls-4" d="M238.2,80.5v-19.3h7.5c2.8,0,4.8.7,6.1,2.2,1.6,1.9,2.3,4.3,2.3,7.4s-.8,5.6-2.3,7.4c-1.3,1.5-3.3,2.2-6.1,2.2h-7.5ZM242.1,77.2h3.6c3,0,4.5-2.1,4.5-6.3s-1.5-6.3-4.5-6.3h-3.6v12.6Z"/>
          </g>
        </g>
        <g>
          <polygon class="cls-5" points="75.2 1 32.3 1 2 32 2 76 32.3 107 75.2 107 105.5 76 105.5 32 75.2 1"/>
          <rect class="cls-1" x="83.9" y="32.1" width="11" height="44.2"/>
        </g>
        <path class="cls-2" d="M31,83.4v-18.2h44.2v-22.1H31v-18.2h44.2V1.1c-.9,0-1.8,0-2.6,0-29.3,0-53,23.7-53,53s23.7,53,53,53,1.8,0,2.6,0v-23.6H31Z"/>
      </g>
    </g>
  </g>
</svg>