<svg xmlns="http://www.w3.org/2000/svg" viewBox="0 0 83.56 143" xmlns:v="https://vecta.io/nano"><circle cx="41.78" cy="41.78" r="41.78" fill="#14426a"/><path d="M43.83 8.58a2.15 2.15 0 0 0 0 .43v.36h-.48v-.31c-.08-.7-.58-.63-.59.08v.24h-.44a1.32 1.32 0 0 0-.68.18 1.64 1.64 0 0 1-.28.16l-.55.35-1.18.75c-.82.5-.72.25-1 2.45l-.16 1.43-.11 1-.42 3.55-.47 4-.22 1.91-.15 1.35-.11 1c0 .28-.09.83-.14 1.22l-.16 1.31-.12 1-.15 1.19-.57 5.1-.24 2-.11 1c0 .26-.08.69-.12.95l-.12 1-.11 1c0 .28-.09.76-.12 1.08l-.43 3.75c0 .25-.08.68-.11 1l-.13 1-.23 2c0 .26-.08.72-.12 1l-.12 1.08-.18 1.6c-.15 1.34-.15 1.28 0 1.35a.66.66 0 0 0 1-.56c0-.93.06-1 .68-.82l.66.19.36.11.36.11 1.37.37c.66.18.61.07.58 1.4v1.15l.23.07a1 1 0 0 0 .77-.06c.07 0 .09-.27.09-1.07s0-1 .11-1.06 5.46-.15 7.93-.15c1 0 .87-.1.91 1a5 5 0 0 0 .08 1 1.78 1.78 0 0 0 1 0l.16-.07v-.6l-.21-3.16c0-.49-.09-1.27-.12-1.73l-.12-1.67-.23-3.22-.6-8.77c0-.52-.09-1.3-.12-1.72l-.09-1.29-.21-2.92c0-.41-.08-1.12-.11-1.58l-.09-1.22-.1-1.27-.12-1.7-.15-2.22-.6-8.74c0-.19-.06-.72-.09-1.16l-.23-3.37c0-.46-.09-1.27-.12-1.81a7.85 7.85 0 0 0-.1-1 8.58 8.58 0 0 0-1-.09c-1.08 0-1.08 0-1.16-.43-.12-.55-.4-.85-.51-.53m1.22 1.26A6.94 6.94 0 0 1 43.86 11a3.56 3.56 0 0 1-.94-.85c-.37-.41-.4-.4.94-.4.94 0 1.19 0 1.19.08m-2.42.39c1.09.93 1.08.89.4 1.48s-.74.64-1 .55l-.19-.08v-1.13c0-1.08.06-1.22.22-1.23s.24.18.51.41m2.82 0a8.74 8.74 0 0 1 .14 2.21c-.09.09-.23 0-.89-.61s-.64-.65-.32-.93c.86-.75 1-.81 1.07-.67m-4.53.26c0 .11-.25.47-.39.49s-.29-.18-.22-.29.56-.35.61-.2m-.79.7c.19.25.19.24-.07.58s-.37.39-.33-.17.11-.78.4-.41m.76.24c0 .12-.12.26-.21.17s0-.09 0-.16.16-.12.2 0m3.5.44c.69.66.69.67-.47.67-1.35 0-1.35 0-.68-.67s.56-.57 1.15 0m-3.79.21c.18.24.13.34-.17.34s-.4-.13-.2-.34.25-.17.37 0m.14.83a1.42 1.42 0 0 1-.43.78c-.09.06-.57-.58-.57-.76s1-.29 1 0m1.84.09a5.13 5.13 0 0 1 1.1.94 11.31 11.31 0 0 1-1.88 1.6c-.13 0-.14-.13-.08-1.33.08-1.58.18-1.72.86-1.21m2.33-.07c0 .17-.77.88-.92.82a3.25 3.25 0 0 1-.46-.31c-.84-.64-.82-.67.43-.65.89 0 .94 0 1 .14m.76.13c0 .08.14 1.53.15 2.06 0 .19-.21.11-.57-.21l-.63-.54c-.38-.31-.36-.38.15-.82l.46-.42c.14-.17.39-.21.44-.07m-6 .36a1.08 1.08 0 0 1-.08 1.44c-.23.23-.26.17-.24-.6s.09-1 .32-.84m1.07.47c.11.29 0 .92-.11.92s-.35-.51-.21-.86c.06-.18.26-.21.32-.06m4 1c.85.7.88.68-.88.7s-1.76 0-.64-.83c.72-.57.65-.57 1.52.13m-4.43.11c.3.39.21.54-.33.54s-.47-.1-.21-.49.28-.39.54-.05m0 1a.75.75 0 0 1-.12.43l-.23.45c-.12.24-.25.15-.57-.42s-.14-.57.51-.58c.32 0 .37 0 .41.12m4.71 0a6.53 6.53 0 0 1-1.35 1.21.49.49 0 0 1-.22-.08c-1.14-.94-1.31-1.1-1.19-1.18a15.66 15.66 0 0 1 2.76.05m.79.84c.16 1.93.09 2.3-.35 1.91l-1.2-1c-.3-.22-.36-.41.87-1.4.63-.5.6-.52.68.51m-3.49-.36c1.17 1 1.16.95.6 1.42l-.73.61c-.78.68-.8.66-.75-1s0-1.69.88-1m-3 .45a1.22 1.22 0 0 1 0 1.38c-.47.93-.63.92-.53 0 0-.34.08-.79.09-1 .08-.87.19-.95.48-.34m1.19.49v.94c0 .43-.17.39-.38-.09a1.47 1.47 0 0 1 0-1.37c.34-.55.46-.4.41.52m3.9.81l.72.62c0 .2 0 .21-1.59.21s-1.73 0-1.41-.29a8.12 8.12 0 0 1 1.45-1.14 4.54 4.54 0 0 1 .83.6m-4.38.48c.39.75.33.86-.46.92h-.58v-.15a3.69 3.69 0 0 1 .65-1.37c.09 0 .18.08.43.56m4.94.63c.19.07.09.19-.51.7-.83.69-.92.68-2-.37-.11-.1-.11-.29 0-.33a23.35 23.35 0 0 1 2.51 0m-2.72.47c.77.59 1.09.87 1.09 1a8.82 8.82 0 0 1-2 1.74 10.23 10.23 0 0 1 0-2.9c.05-.32.28-.27.9.2m3.68-.14c0 .14 0 .47.06.73s.06.78.09 1.15c.09 1.07 0 1.08-1.22.06l-.51-.38c-.5-.38-.5-.37.27-1l.84-.68c.28-.23.43-.19.47.11m-6.08.2c.14.06.11.22-.09.5s-.33.27-.53-.13.16-.54.62-.37m-.82.66c.33.62.33.72-.08 1.37-.62 1-.73.94-.56-.2 0-.22.08-.66.11-1 .09-.88.15-.91.53-.19m1.27.7c0 1-.07 1.1-.39.57s-.3-.67 0-1 .39-.4.39.46m4.2.4c1.31 1.08 1.36 1-.83 1s-2 0-1.23-.65l.61-.5c.57-.54.64-.53 1.45.14m-5 .16a7.87 7.87 0 0 1 .59 1.21 5.09 5.09 0 0 1-1.46 0c0-.05 0-.08.35-.76s.37-.64.52-.46m2.36 1.49l.76.6c.73.56.77.67.38 1l-.32.25c-1.8 1.43-1.67 1.42-1.65.16 0-2.57 0-2.59.83-2m3.38-.35c.06.1 0 .21-.27.39s-.48.36-.76.59c-.61.47-.59.47-1.08.11-1.14-.82-1.29-1-1.15-1.1a29.52 29.52 0 0 1 3.26 0m1 .32a22.3 22.3 0 0 1 .12 3c-.08.08-.26 0-.79-.42l-.81-.6c-1-.75-1.06-.64.21-1.51l.88-.64c.26-.22.35-.17.39.2m-6.47.18a1.28 1.28 0 0 1-.3.64v.09c0 .09-.21.23-.29.18a3 3 0 0 1-.46-1c.06-.15 1.07-.09 1.1.05m-1.11.73c.31.59.33.79.11 1.1a7.7 7.7 0 0 0-.32.55c-.3.55-.64.67-.55.2 0-.19.09-.74.19-1.82.07-.76.18-.77.57 0m1.47.6c0 1.24-.07 1.29-.48.65s-.35-.57 0-1.16.48-.67.46.51m4.47.59c1.35 1 1.4 1.1.52 1.11h-1.94c-2 .06-2 .09-.91-.73l1-.78c.38-.3.44-.28 1.3.35m-5.21.11a1.2 1.2 0 0 1 .15.24 2 2 0 0 0 .18.33c.33.57.33.57-.58.59s-.94 0-.59-.54l.36-.56c.19-.31.28-.32.48-.06m2.66 1.89c1.26 1 1.2.95 1.18 1.12s-.26.35-1.66 1.35c-.77.55-.73.68-.63-1.8v-1.27h.16c.11 0 .38.19.9.6m3.42-.54c0 .07-.09.22-.51.53l-.74.57c-.58.46-.58.46-1.48-.3-1.07-.91-1.12-.86 1-.86a12.86 12.86 0 0 1 1.76.06m1 0a8.47 8.47 0 0 1 .13 1.36c0 .7.08 1.48.1 1.73 0 .63-.08.73-.45.4-.08-.08-.36-.3-.62-.49l-.51-.39c-.01-.02-.35-.29-.6-.48-.57-.43-.6-.57-.19-.83l.89-.64c1-.75 1.13-.81 1.25-.66m-7 .17c.08.09 0 .17-.27.69s-.4.59-.85-.2c-.13-.22-.16-.38-.1-.48a2.51 2.51 0 0 1 1.22 0m.48.65a11.23 11.23 0 0 1-.13 2.26 4.35 4.35 0 0 1-.81-1.41 2.06 2.06 0 0 1 .3-.56c.53-.77.61-.81.64-.29m-1.56.3c.33.5.31.68-.17 1.45s-.65.93-.61.35c.16-2.25.29-2.55.78-1.8m5.66.82l.84.69c1.12.91 1.19.85-1.24.95h-2c0-.06-.08-.26.11-.4a2.22 2.22 0 0 0 .26-.19 7 7 0 0 1 .59-.42l.77-.55c.27-.21.57-.26.71-.12m-4.77.77c.64 1 .64 1-.49.93-1 0-1 0-.59-.6.66-1 .65-1 1.08-.33m.33 1.28a4.25 4.25 0 0 1-.85 1.45c-.13.11-.19 0-.63-.8s-.42-.88.68-.86h.78v.19m6.62 0c0 .09-.14.23-.6.57l-1.07.79c-.61.46-.65.44-1.78-.58l-.52-.45c-.14-.11-.31-.34-.21-.44a24.07 24.07 0 0 1 4.18.11m-4.33.42l1.13.94c.75.62.75.63 0 1.17l-.83.63c-1.21.94-1.49 1.06-1.49.64a90.85 90.85 0 0 1 .27-3.85c.03-.07.36 0 .93.47m5 .21c0 .36.17 2.52.19 3.1 0 .41-.13.38-.8-.16l-1-.82c-.62-.47-.87-.7-.87-.79a9.79 9.79 0 0 1 1.46-1.16l.37-.26c.49-.45.63-.44.69.09m-9.19-.2a7.27 7.27 0 0 1 .59 1c.26.48.23.59-.42 1.56s-.8 1.1-.66-.18c0-.36.11-1 .16-1.51.11-1 .13-1.1.33-.86m2.19 1.53c0 1.69-.07 1.79-.47 1.1l-.36-.62a1.36 1.36 0 0 1 .36-1.4 1.69 1.69 0 0 0 .2-.29c.27-.41.3-.29.27 1.21m4.83.68l1.1.87c.86.67 1 .64-1.88.62a18.07 18.07 0 0 1-2.4-.08 17.9 17.9 0 0 1 2.4-1.87 3.56 3.56 0 0 1 .66.46m-5.91-.15a7.63 7.63 0 0 1 .71 1.5c0 .06-.28.09-.9.12-1.19.06-1.25 0-.76-.71.68-1 .79-1.11 1-.91m.49 2c.17.1-.76 1.51-1 1.48a4.35 4.35 0 0 1-.77-1.46 5.59 5.59 0 0 1 1.74 0m1.83.08c.22.15 1.89 1.5 2.12 1.7l.25.21c.23.16.1.34-.54.78l-.77.55a8.56 8.56 0 0 1-1.57 1c-.11 0-.11 0 0-1.83.09-2.6.13-2.74.55-2.43m5.43 0c0 .07 0 .14-.1.21l-.86.63c-1.64 1.2-1.54 1.17-2.22.66-1.57-1.21-1.78-1.4-1.69-1.51a28.27 28.27 0 0 1 4.87 0m-9.18.38c.87 1.55.86 1.45.18 2.47-1 1.43-.94 1.44-.76-.35 0-.3.08-.88.12-1.29.11-1.29.16-1.37.46-.83m9.82 0c0 .08 0 .53.06 1s.06 1.34.09 1.91c.07 1.38.09 1.36-.89.61l-1.4-1.06a4.62 4.62 0 0 1-.73-.63c0-.08.39-.38 1.77-1.36l.66-.48c.08-.07.41-.16.44 0m-7.53 1.72c0 1.38 0 1.52-.14 1.54a.15.15 0 0 1-.15-.09c0-.06-.21-.4-.42-.75-.39-.67-.46-.9-.31-1.11 1.14-1.59 1.06-1.62 1 .41m-1.06.6a1.44 1.44 0 0 1 .16.26c0 0 .15.26.33.54.48.74.51.72-.84.72h-1.17v-.15a.9.9 0 0 1 .26-.51l.48-.67c.37-.55.51-.58.76-.19m5.9 0l.46.36.76.55c.54.39.67.51.66.62v.12h-2.52-2.52v-.14c0-.11.17-.25.82-.69l1.24-.85c.53-.38.65-.38 1.12 0m-5.69 1.84c.38 0 .43.13.24.4l-.56.81c-.31.47-.44.6-.53.59a6.4 6.4 0 0 1-1-1.71c0-.17.72-.2 1.83-.09m8 .18c.3.06.16.25-.59.8l-1.34 1c-.65.48-.92.56-1.1.35a5.06 5.06 0 0 0-.39-.33 11.74 11.74 0 0 1-.72-.57l-.64-.52c-1.07-.83-1.15-.8 2-.77l2.74.06m-5.61.33l.44.35.8.66c1.42 1.14 1.4 1.1.74 1.55l-.46.33-.72.53-1 .72c-.62.45-.65.42-.63-.69a19.3 19.3 0 0 1 .24-3.68c.14-.11.15-.11.59.23m-4.44-.08a8.56 8.56 0 0 1 .67 1.16c.33.64.32.73-.32 1.67-1 1.41-1.15 1.53-1 .66l.3-2.67c.1-.91.17-1.06.37-.82m10.73.27c.08.35.31 4.38.26 4.45s-.21.09-.76-.36l-.54-.43-2-1.58c-.06-.04 0-.21.24-.36l.47-.33.39-.28 1.85-1.24c.04 0 .06.06.07.13m-8 .08l-.15 3.52c-.04.05-.35-.23-.35-.34a3.9 3.9 0 0 0-.28-.51c-.68-1.14-.68-1.2-.23-1.78l.55-.73c.24-.33.46-.41.46-.16m-1 2.86c.57 1.11.58 1.16.15 1.16a18.32 18.32 0 0 1-2.13-.17 6 6 0 0 1 1-1.45c.49-.65.5-.65 1.07.46m6-.49l.52.4.42.33.75.59c.77.6.87.7.79.79s-4.72.06-5.59 0-.7-.13 1.75-1.77a7.37 7.37 0 0 0 .65-.47c.18-.16.35-.13.71.15M38.31 45c.83.06.82.11-.25 1.46-.58.73-.54.76-1.26-.85-.32-.73-.31-.74.4-.68l1.11.07m-2.1.09l.58 1.08c.69 1.35.74 1.11-.64 2.9-.69.9-.71.86-.53-.87 0-.29.11-1.07.18-1.73.15-1.4.22-1.62.41-1.38m-12.45 0a4.56 4.56 0 0 1-.68.18 2.14 2.14 0 0 0-1.48.81 4.48 4.48 0 0 0-1.08 3.64c0 1 0 1.07-.19 1a2.22 2.22 0 0 1-.49-.94.29.29 0 0 0 0-.17.84.84 0 0 1 .14-1c.25-.22.24-.3-.06-.33s-.21-.47.16-.59c.11 0 .17-.11.17-.18s.09-.17.21-.24.2-.14.15-.26 0-.29.2-.39.19-.12.19-.33.06-.38.18-.38.29-.4.23-.49a2.89 2.89 0 0 0-1.28.1 3.15 3.15 0 0 0-2.27 3.2 11.26 11.26 0 0 0 .66 2.28c.13.27.07.31-.42.31a6.88 6.88 0 0 0-4.45 1.75c-1.4 1.41-1.5 2.78-.33 4.55a6.33 6.33 0 0 1 .4.64.33.33 0 0 0 .41.19c.08 0 .06-.26-.12-.93s-.13-.7.07-.75.12-.07.09-.47 0-.54.2-.57.16-.07.23-.37.1-.36.31-.45a.6.6 0 0 0 .29-.24c.06-.12.09-.14.3-.1s.24 0 .28-.15.08-.25.28-.14.27.11.35-.1l.11-.17h.37l.52.07c.14 0 .17 0 .26-.16.24-.47.49-.53 1-.23s.44.56.11.76a16.32 16.32 0 0 0-1.54 1.36c-2 2-1.39 4.91 1.67 7.75 1.07 1 1.83.76.87-.27l-.32-.28.12-.12c.16-.16.16-.32 0-.45a.79.79 0 0 1-.16-.41c0-.38-.07-.41-.52-.65s-.82-.58-.82-.7.19-.13.44 0 .4.23.4.14a5.88 5.88 0 0 0-.48-.53c-.45-.46-.53-.62-.33-.62a1.5 1.5 0 0 1 .43.36 1.39 1.39 0 0 0 .42.36c.19 0 0-.22-.52-.76s-.68-.73-.54-.82.21.09.4.24.5.33.5.21-.2-.24-.66-.56-.47-.37-.47-.55.21-.08.53.21.48.37.48.24a3.72 3.72 0 0 0-.45-.54c-.41-.44-.45-.5-.43-.7s.13-.3.51.07c.56.55.7.41.15-.17-.37-.41-.47-.6-.37-.73s.22-.09.53.22.38.29.06-.22-.31-.79 0-.79.36.24.53 1.17a8.11 8.11 0 0 0 .7 2.29A25.89 25.89 0 0 0 22.32 63a15.42 15.42 0 0 0 2.93 2.89c.27 0 .22-.1-.28-.57s-.45-.44-.42-.61 0-.23-.4-.67-.45-.52-.45-.63-.15-.31-.54-.73c-.6-.62-.71-.8-.61-.91s.13 0 .31.09c.53.35.46.19-.25-.55a2.64 2.64 0 0 1-.52-.67c0-.14.08-.15.18 0s.28.22.33.14a2.28 2.28 0 0 0-.47-.58c-.52-.53-.67-.75-.61-.85s.24-.06.43.13.22.17.25.15 0-.16-.45-.57-.56-.6-.38-.6.36.14.36.19.06 0 .12 0 .15-.07 0-.26a.82.82 0 0 1-.21-.37 1.37 1.37 0 0 0-.2-.46c-.33-.48-.3-.77 0-.52s.33.13.11-.11-.47-.56-.47-.76.11-.31.5.11.57.5.57.34a2.21 2.21 0 0 0-.39-.48c-.39-.41-.47-.59-.28-.59s.41.22 1 .8l2.41 2.21.53.48 1 .9 2.29 1.86 1.46 1.19c.08.08.64.51 1.67 1.3.37.28 2.34 1.59 4 2.64a26.62 26.62 0 0 1 2.34 1.59 6.23 6.23 0 0 1-1.53.51l-.69.17-.74.19-.48.11-4.81.9-.9.12-3.86.35c-1.44.08-1.6.1-1.81.3a1.74 1.74 0 0 0 .16 1.93c.24.2.32.21 1.54.05l.9-.12.83-.11 1-.15 1.08-.16 2.5-.36 2.36-.36.56-.1.63-.13.54-.12 1.49-.35 1.85-.43a6.05 6.05 0 0 0 .68-.18l.27-.08c.15 0 .39-.09.82-.22a1.41 1.41 0 0 1 1.11 0l.67.31.36.14c.05 0 1.94.76 2.27.9a1.22 1.22 0 0 0 .33.12.22.22 0 0 1 .14 0 1.57 1.57 0 0 0 .29.12 2.69 2.69 0 0 1 .36.13l.48.17 1.22.42 1.76.58.24.08c.18.07 1.3.38 2.41.65a33.65 33.65 0 0 0 4.21.72 40.39 40.39 0 0 0 5.07.39c.58-.11.84-.67.68-1.47-.2-1-.11-.89-1.13-.93-.73 0-2.09-.14-2.86-.25l-1.66-.24-2-.36-.57-.11-2.41-.61-.6-.18-.95-.29-1-.3-2.74-.91c-.84-.36-.89-.29.66-1l4.59-2.22a40 40 0 0 0 6.08-4l.6-.48.51-.43a45.77 45.77 0 0 0 2.86-2.88l.84-1c.43-.51.42-.05.23.51a5.72 5.72 0 0 1-1.1 2.23.49.49 0 0 0-.21.42 1.49 1.49 0 0 1-.68.89c-.09 0-.16.12-.16.16a2.05 2.05 0 0 1-.66.71.44.44 0 0 0-.2.23 1.31 1.31 0 0 1-.36.4 1 1 0 0 0-.4.49 1.84 1.84 0 0 1-.81.79 1.63 1.63 0 0 0-.55.7.6.6 0 0 1-.18.29c-.43.45.25.44 1 0 .4-.24.59-.29.65-.18s.44 0 1-.76c.3-.42.47-.54.6-.46s.84-.59 1.24-1.48c.2-.43.39-.64.5-.53a.2.2 0 0 0 .32 0l.18-.46.23-.7c.25-1 .61-1.35.92-1 .16.2.14.33-.07.43s-.2.18 0 .46.16.28-.09.51a.53.53 0 0 0-.2.38c0 .23 0 .29-.29.41s-.19.12-.19.4-.09.42-.42.49c-.12 0-.17.09-.22.33l-.16.66c-.23.89-.06 1.14.45.66.34-.32.46-.35.56-.13s.62 0 .62-.33a3.3 3.3 0 0 1 .7-1.09.76.76 0 0 1 .27.11c.33.19.52-.3.52-1.33 0-.82.12-1 .44-.5s.39.24.29-.49c-.2-1.44-.16-1.8.2-1.66s.34-.05.23-.78a4.57 4.57 0 0 0-.41-1.64c-.44-1-.43-1.17 0-1a.51.51 0 0 0 .42 0c.19-.07.25-.07.33 0a.58.58 0 0 0 .32.09c.23 0 .27 0 .45.58s.45.28.45-.29c0-.17 0-.21.18-.14s.22.84.05 1.28c-.25.68-.21 1 .11.77.12-.08.16-.08.2 0s.07.11 0 .45-.12.38.08.38.41.16.27.5-.12.39.18.39h.27v.23a1.85 1.85 0 0 1-.18.6 1.6 1.6 0 0 0-.17.51c0 .17.34-.29.52-.77l.19-.48a9.52 9.52 0 0 0 .31-3.4 4.39 4.39 0 0 0-1-2.67l-.51-.72c-.33-.47-.32-.83 0-.53a1.07 1.07 0 0 0 .3.17c.17 0 .2.09.25.34v.28h.26c.28 0 .43.07.44.3s0 .12.27 0 .34 0 .39.44c.11.89.43.27.44-.84 0-1.8-1.17-2.61-2.81-1.93l-.83.33a1.19 1.19 0 0 0-.36.19 3.08 3.08 0 0 1-.53.37l-.29.18c-.73.49-.8.38-.52-.87a4.57 4.57 0 0 0-.26-3.37c-1.14-1.71-2.78-2.53-4.26-2.14-2 .53-3.4 1.25-3 1.53.13.09.24 0 .55-.22a.77.77 0 0 1 1-.17c.37.16.49.13 1.12-.22s.87-.37.9-.16 0 .21-.47.51c-.22.16-.32.34-.18.34a3.76 3.76 0 0 0 .79-.42c.47-.28.66-.06.26.31s-.35.52.27.23c.79-.38 1.3 0 .65.44-.32.22-.41.44-.16.37.82-.25.94.24.27 1.17-.47.65-.42.63-1.1.22a6.38 6.38 0 0 0-8.52 1.09c-.71.74-.49.91.32.26a5 5 0 0 1 .65-.48l.34-.2c.3-.18.37 0 .1.26s-.25.39-.08.39a4.14 4.14 0 0 0 .61-.57c.57-.6.79-.74 1-.63s.14.33-.54.86c-.24.18-.28.34-.09.34s.3-.17.6-.48c.54-.56.78-.72 1.08-.72.45 0 .21.37-.7 1.09a.32.32 0 0 0-.15.2c0 .13.26 0 .65-.4.73-.68 1.28-.92 1.53-.65s0 .33-.33.59-.54.41-.54.52.2.07.59-.33.63-.52 1-.45.18.34-.46.74c-.31.2-.42.34-.32.44s.42-.12.42-.21a2.25 2.25 0 0 1 .81-.58c.42 0 .24.32-.42.77a3.41 3.41 0 0 0-.57.43c0 .11.13.1.34 0a.56.56 0 0 1 .46-.12 1 1 0 0 0 .4 0c.78-.29.87-.31 1-.26s.23.23 0 .38-.19.25.16.27.44.15.17.44-.2.32.06.32.48.12.48.28-.18.27-1.19.26a8.75 8.75 0 0 0-1.43.09 2.83 2.83 0 0 1-.91 0c-.54-.06-.63 0-.68.21s-.16.32-.61.25-.63 0-.77.3-.12.22-.43.24a1.1 1.1 0 0 0-.48.13 1.49 1.49 0 0 1-.36.17 1.41 1.41 0 0 0-.42.25 3.94 3.94 0 0 1-1.15.8c-.34.16-.48.25-.52.37l-.2.47c-.2.43-.22.54-.07.52h.69.56v-.27c0-.39.12-.46.72-.54a2.75 2.75 0 0 0 .81-.22 1.68 1.68 0 0 1 .74-.18 1.4 1.4 0 0 0 .62-.14c.27-.19.5-.21.64-.05l.11.14.26-.19c.71-.53 1.24-.51 1.24 0 0 .24.12.22.29 0a2.14 2.14 0 0 1 2-.51c.15 0 .19.14.06.14a5.62 5.62 0 0 0-1.28.53.73.73 0 0 1-.36.12c-.18 0-.28.09-.4.32a.43.43 0 0 1-.27.18 1.4 1.4 0 0 0-.42.24 1.37 1.37 0 0 1-.59.31 1.28 1.28 0 0 0-.54.27 1 1 0 0 1-.78.29c-.18 0-.23 0-.29.17s-.28.33-.72.35h-.42a.9.9 0 0 0-.22.18c-.17.16-.23.18-.56.18s-.38 0-.5.22-.42.38-.88.39c-.18 0-.28 0-.28.08a.56.56 0 0 1-.21.24c-.23.17-.3.53-.12.6a9.84 9.84 0 0 0 1.64-.16 14.48 14.48 0 0 0 4-1.55l.71-.39a15.72 15.72 0 0 0 1.53-.87c.43-.3.38 0-.08.47a32.44 32.44 0 0 1-6.1 5.06l-1.46.84a3.3 3.3 0 0 0-.33.2c0 0-.38.21-.77.4l-3.31 1.54-1 .44-.86.35-1.16.42c-2.48.89-3 1.06-3.31 1s-3.51-1.64-3.58-1.72a5.27 5.27 0 0 0-.48-.27 38.58 38.58 0 0 1-4.27-2.63l-.83-.6-3-2.18-.37-.31a4.52 4.52 0 0 1-.36-.3l-.43-.37-.63-.54-.62-.56a16.21 16.21 0 0 1-2.63-2.8c.17-.27.77.13 1.2.79.24.37.28.41.46.4s.32 0 .61.35.31.36.53.39.28.08.29.13a.79.79 0 0 0 .26.18 1.28 1.28 0 0 1 .38.23.76.76 0 0 0 .31.18 2.82 2.82 0 0 1 .58.45c.72.71.85.26.2-.73a7 7 0 0 0-2.63-2.11l-1.12-.65c-.44-.26-.55-.44-.33-.56s.59 0 1 .31l.23.19.09-.14c.12-.19.25-.16.65.13.56.41.6.43.67.25s.25-.18.64.16c.24.2.33.21.54 0s.22-.16.55.18.32.31.48.27a.35.35 0 0 1 .41.32c0 .14.11.18.28.11s.22 0 .53.12c.58.28.66.21.34-.29-.9-1.4-2.67-2.25-5.68-2.74-1.12-.18-1.38-.27-1.68-.57s-.17-.26.06-.27c.44 0 .5-.08.28-.38s-.14-.27.07-.27.17-.12-.1-.39c-.44-.42-.24-.8.24-.48.23.15.54.21.54.1s-.11-.14-.25-.22c-.55-.37-.5-1 .06-.62.34.21.43 0 .1-.19-.49-.32-.18-.79.32-.5.33.19.49 0 .27-.29s-.11-.33 0-.33.26.08.48.37.27.28.29-.12v-.34l.3-.04c.25 0 .28 0 .55.28.43.4.52.43.66.25s.36-.21.56 0l.33.41.16.18V50c0-.47.16-.45.54.07s.48.53.48.34.15-.23.38-.14c.73.31-.19-.91-1.35-1.77-2.7-2-5.39-1.31-7.22 1.88-.19.32-.21.33-.32.18-.26-.35 0-1.14.73-1.86.49-.51.51-.62.14-.56s-.21-.28.34-.42c.23-.06.29-.1.31-.21s.08-.16.2-.2.2-.24 0-.27c-.49-.06-.38-.25.14-.25s.66-.11.3-.26-.3-.31.18-.29.44-.08 0-.22c-.83-.24-.14-.5.8-.3.3.07.48 0 .48-.13s-1.8-.64-2.09-.47m17.45.72l.92.74c.12.11.5.42.86.69a9.67 9.67 0 0 1 .83.67l.18.18-.18.16-1.36 1-1.61 1.18c-.29.22-.47.31-.57.29h-.15v-1.36l.16-4c.05-.07.21-.07.91.47m3.27-.33c2.6 0 2.72.05 2.62.26a31.22 31.22 0 0 1-2.68 2c-.18.08-1.09-.48-1.46-.91l-.72-.58-.77-.64c-.04-.05 0-.28.26-.24s1.34 0 2.75.06m-5.25 1.83l-.06 1.93c0 .69 0 .69-.16.67s-.23-.22-.65-1.06c-.69-1.38-.7-1.5-.27-2a2.82 2.82 0 0 0 .28-.36c.86-1.25.92-1.19.86.79M47.9 46a10.66 10.66 0 0 1 .13 1.33c.21 3.76.21 3.46 0 3.46a.87.87 0 0 1-.31-.19 12.9 12.9 0 0 0-.65-.51l-1.41-1.12-.52-.41c-.65-.49-.64-.49.82-1.47l.56-.39c.69-.59 1.28-.88 1.37-.7m-9.92 2.65c.9 1.9.9 1.88-.27 1.67l-1.42-.24c-.42-.06-.42-.13-.42-.25a1.2 1.2 0 0 1 .19-.27l.64-.82c.84-1.12.79-1.11 1.28-.09m6.53-.21a.91.91 0 0 1 .18.14l.25.19.3.24.61.49.84.66.41.33c.25.19.34.31.3.36s-5.9.09-6.42.06c-.18 0-.11-.17.15-.36l.77-.55c2.16-1.6 2.37-1.73 2.61-1.56m-8.86 1.94c.15.07.35.41 1.13 2 .28.57.27.61-.28 1.28-1.52 1.86-1.5 1.84-1.57 1.67a9.6 9.6 0 0 1 .1-1.76l.23-2.24c.1-1 .11-1 .39-.91m1.41.17l.68.12c.89.15.9.24.18 1.14s-.72.88-1 .16l-.46-1.08c-.19-.42-.18-.49.6-.34m1.85 2.81c0 2 0 2.38-.18 2.38a9.29 9.29 0 0 1-.72-1.41l-.3-.64c-.35-.74-.38-.64.39-1.58l.66-.82c.16-.23.18 0 .15 2.07m8.46-2.07c.1.12.07.15-.9.85-2.31 1.69-2.12 1.61-2.83 1.12l-1.53-1.06c-1.07-.73-1.2-.84-1-.94s6.23-.07 6.31 0m-6 .73l1.14.8a.1.1 0 0 0 .08 0 5.41 5.41 0 0 1 1.31 1A8.64 8.64 0 0 1 42.25 55a.08.08 0 0 0-.07 0 17.55 17.55 0 0 1-2.31 1.51 5.92 5.92 0 0 1 0-1.56l.1-2.55c0-1.48 0-1.45 1.43-.45m6.85-.5c0 .22.09.73.15 1.68l.21 2.73c.06.55.11.68-2.12-.82-2.07-1.39-2-1.29-1.4-1.68l.37-.26.21-.14c.08 0 .39-.24.7-.46 1.88-1.31 1.83-1.28 1.88-1m-10.9 2c0 .07.27.59.52 1.14l.54 1.2c.23.52.13.53-1.61.08s-1.59-.26-.33-1.8c.63-.77.76-.87.88-.62m7.44.83l.63.43 1.25.86c1 .69 1.18.82 1.1.89s-1 .09-2.23.13l-3.48.12c-2 .07-2 .11 0-1.22l1.17-.8c.9-.67 1.12-.73 1.6-.41m-20.77.84a17.38 17.38 0 0 1 1.38 1.26l3 2.86.68.63c.19.19 1.53 1.29 1.82 1.5l.68.48 1 .69.62.43c.01.02 1 .64 1.31.87l.87.55 2.77 1.64 1.13.61 1.61.79 1.32.6 1.61.66 1.4.57c.32.14 2.34.87 2.95 1.06a1.2 1.2 0 0 1 .27.12.34.34 0 0 0 .16 0 .5.5 0 0 1 .21 0 5.37 5.37 0 0 0 .94.3l.72.21 1 .28.66.18 1.43.34 6 1 .88.12a6.34 6.34 0 0 0 .67.06.58.58 0 0 1 .3 1.07 37 37 0 0 1-6-.48 29 29 0 0 1-2.9-.56l-3.84-1.1-1.94-.63-1.61-.57-1.46-.53-.87-.33-.55-.24-1.43-.63a3.89 3.89 0 0 0-.4-.17c0 0-2-1.14-2.18-1.26a1.08 1.08 0 0 0-.2-.12 74.07 74.07 0 0 1-7.32-5.14l-.56-.46-.56-.46-.68-.57-.64-.52-.74-.63-.8-.67-.81-.69-.84-.72-.48-.42c-1-.84-1.57-1.43-1.57-1.62s.61-.58 1-.42m38.36 1.53c.1.11.1.13-.06.4a38.41 38.41 0 0 1-3 3.06l-2.23 1.79-.62.44-1.59 1.08-.12.09-.57.4a14.81 14.81 0 0 1-1.46.87l-.39.22c-.21.18-3.87 2.01-3.87 2.01l-.83.39-.83.38-.43.18-.42.18-.49.22c-1 .47-1.1.47-1.91.08s-.75-.44-.22-.61l.77-.24 2.59-.89 1.26-.48 1.46-.64.81-.37a37.77 37.77 0 0 0 5.45-3.2l.77-.57.84-.65.47-.38a40.63 40.63 0 0 0 3.71-3.49c.36-.38.66-.46.88-.22M39.52 69.15c.64.35.69.44.29.56l-1.93.49-.68.16-.48.1-.57.13-.58.12-.5.11-.59.12-1.34.24-2.74.36-.81.09-.74.09-1 .12-2.18.23c-2 .2-1.88.21-1.88-.19 0-.6 0-.59 2.86-.82a36.5 36.5 0 0 0 3.7-.42l.54-.08.5-.09.63-.12.66-.12 1-.18 3.25-.68 1.64-.45c.32-.1.47-.06 1 .23" fill="#ceac2c" fill-rule="evenodd"/><g fill="none" stroke-width="2"><circle cx="41.78" cy="41.78" r="40.39" stroke="#ceac2c"/><path d="M2.3 142h78.95" stroke-miterlimit="10" stroke="#f0b948"/></g><path d="M30.58 88.15a.49.49 0 0 0-.31.22 1.52 1.52 0 0 1-.33.45c-.15.15-.5.55-.79.89l-1.59 1.76a4.24 4.24 0 0 0-.55.68c-.07.13-.19.23-.27.23s-.16.09-.19.21a.46.46 0 0 1-.28.28c-.12 0-.22.11-.22.17a2.64 2.64 0 0 1-.55.71l-.86 1c-.17.23-.39.48-.49.58a1.37 1.37 0 0 0-.24.4.64.64 0 0 1-.26.32.7.7 0 0 0-.25.42 1.23 1.23 0 0 1-.26.51 2.09 2.09 0 0 0-.32.83c-.17.86 0 1.3.29.7a3.52 3.52 0 0 1 1-1.24.84.84 0 0 0 .31-.44 12.51 12.51 0 0 1 1.9-2.37l1.41-1.51 2.1-2.2c2.6-2.69 2.47-2.53 2.22-2.6a5.54 5.54 0 0 0-1.52 0m16.91.06v9.05 8.91l.23.3a1.1 1.1 0 0 1 .24.45 2.22 2.22 0 0 0 .82.87 1 1 0 0 1 .36.21c1.31 1 10.47 1 11.56 0a.69.69 0 0 1 .34-.21.5.5 0 0 0 .27-.22 2.87 2.87 0 0 1 .53-.48l.38-.26.32.25a15.22 15.22 0 0 1 .59.47 1 1 0 0 0 .4.24.88.88 0 0 1 .39.21c.67.52 3.18.75 4.59.41a3.44 3.44 0 0 0 2.18-1.49l.49-.61.24.29a5 5 0 0 0 1.91 1.55c2.12 1.14 5.91.09 6.41-1.78a4.44 4.44 0 0 1 .28-.73c.14-.28.22-11.63.08-11.77a3.5 3.5 0 0 0-1.64 0c0 .09-.09 2.58-.09 5.7 0 5.44 0 5.56-.21 5.84a1.15 1.15 0 0 0-.21.39 2.24 2.24 0 0 1-.86.75 1 1 0 0 0-.37.21c-.46.36-3.28.27-3.28-.11 0 0-.14-.1-.32-.14a2.9 2.9 0 0 1-1-.72c-1.08-1-1.08-1.06-1.09-5.18 0-3.87.06-3.62-.9-3.57h-.62l-.06 3.93-.05 3.94-.29.51c-.3.53-.83 1.11-1 1.11a1.18 1.18 0 0 0-.41.22 5.7 5.7 0 0 1-3.12 0 1.45 1.45 0 0 0-.5-.24 5.82 5.82 0 0 1-1.55-1.35c0 0 0-1.84-.08-4.06v-4h-.52a2.85 2.85 0 0 0-.76 0l-.24.06v3.64c0 4.22-.07 4.72-.76 5.41a1.59 1.59 0 0 1-.49.38 1.3 1.3 0 0 0-.44.24c-.48.36-7.75.37-8.23 0a2.84 2.84 0 0 0-.51-.29 3.55 3.55 0 0 1-1.12-1.29c-.1-.22-.14-2.33-.17-8.63l-.08-8.38a2.78 2.78 0 0 0-1.57 0M8.13 93.86a2.47 2.47 0 0 0-.85.25 1.73 1.73 0 0 1-.53.27 2.81 2.81 0 0 0-.67.38 4.45 4.45 0 0 0-1 1s-.1.17-.22.28a1.87 1.87 0 0 0-.37.59.91.91 0 0 1-.31.44.3.3 0 0 0-.14.27 3.66 3.66 0 0 1-.27.87c-.52 1.27-.59 5.92-.1 6.47a2 2 0 0 1 .25.61c.21.76 1.54 2.53 1.92 2.54a.48.48 0 0 1 .22.16c.52.51 2.53.92 3.95.8l.68-.06-.52-.07c-.29 0-.74-.08-1-.09a1.24 1.24 0 0 1-.73-.2 2 2 0 0 0-.52-.28 1.4 1.4 0 0 1-.47-.27c-.11-.11-.41-.37-.65-.59a1.81 1.81 0 0 1-.45-.47 2.21 2.21 0 0 0-.26-.46 1.53 1.53 0 0 1-.26-.56 2 2 0 0 0-.22-.59c-.53-1-.56-5.41 0-6.68a3.69 3.69 0 0 0 .27-.94 1.06 1.06 0 0 1 .25-.57 2.11 2.11 0 0 0 .32-.54 6 6 0 0 1 1.7-1.7 1.26 1.26 0 0 0 .49-.16c1.34-.69 4.55.63 4.85 2a1.17 1.17 0 0 0 .22.49c.49.56.07 10-.45 10a.36.36 0 0 0-.25.2.72.72 0 0 1-.42.27c-.17 0-.32.13-.32.21s-.22.19-.63.27a1.61 1.61 0 0 0-.62.2c0 .29 1.26.13 1.62-.21a.58.58 0 0 1 .83 0c.33.33.09 4.35-.29 4.75-1.52 1.64-1.52 1.63-3.47 1.68-1.62 0-2.76-.09-2.94-.33a1.34 1.34 0 0 0-.45-.28 1 1 0 0 1-.45-.33c-.14-.27-.41-.13-.41.22a1.16 1.16 0 0 0 .83.9c.15 0 .58.14 1 .26 1.66.5 4.62.23 5.46-.49a.54.54 0 0 1 .27-.14 5.34 5.34 0 0 0 1.82-2.54 6.18 6.18 0 0 1 .22-.89 8.43 8.43 0 0 0 .3-2.09c.08-1.74.15-1.85.82-1.38 2.1 1.5 1 1.37 12.19 1.41l9.85-.11c.4-.11.72-.2 1-.26a2.89 2.89 0 0 0 1.72-1.17 3.7 3.7 0 0 1 .44-.53c.22-.16.28-1.75.28-7 0-6.28 0-5.92-.73-5.92s-.85-.41-.84 5.66c0 4.7 0 5.4-.15 5.62a1 1 0 0 0-.17.46 2.25 2.25 0 0 1-.86 1 .41.41 0 0 0-.23.17c-.18.25-1.75.37-4.25.33h-2l-.4-.57a2.62 2.62 0 0 1-.4-.75.63.63 0 0 0-.21-.35 1.48 1.48 0 0 1-.32-.6c-.06-.22-.15-.4-.2-.4s-.17-.2-.27-.45a2.55 2.55 0 0 0-.36-.65 1.35 1.35 0 0 1-.27-.55c0-.19-.11-.34-.17-.34s-.14-.12-.2-.26a7.33 7.33 0 0 0-.63-1.26l-.46-.85a6.43 6.43 0 0 0-2-1.93 1.1 1.1 0 0 1-.4-.21c-.28-.23-1.16-.4-1.25-.25s.21.38.53.72a9.74 9.74 0 0 1 .75.85l.55.79a3.76 3.76 0 0 1 .45.85c0 .16.12.29.17.29s.2.21.31.47a1.89 1.89 0 0 0 .31.53 1.44 1.44 0 0 1 .23.5 1.62 1.62 0 0 0 .32.62 1.31 1.31 0 0 1 .25.5c0 .16.12.33.19.35a.88.88 0 0 1 .27.46 2.31 2.31 0 0 0 .38.69 1.14 1.14 0 0 1 .24.44.44.44 0 0 0 .15.26.74.74 0 0 1 .1 1c-.3.33-11.81.26-12.27-.08a2.58 2.58 0 0 0-.52-.29 5.23 5.23 0 0 1-1.78-1.52l-.26-.35v-3.93c0-3.3 0-4-.15-4.23a7.21 7.21 0 0 0-.72-1.15c-.17-.22-.37-.4-.44-.4a.47.47 0 0 1-.28-.19.86.86 0 0 0-.47-.27 1.55 1.55 0 0 1-.58-.27c-.46-.36-2.91-.52-4.48-.3m28.16 19.07a1.22 1.22 0 0 0 .85 2.16c.4-.06.62-.27.94-.85.48-.89-1-1.95-1.79-1.31m3.73-.14a.45.45 0 0 0-.3.22 1.68 1.68 0 0 1-.2.34c-.29.34-.27.66 0 1.17.87 1.37 2.57.19 1.87-1.3-.22-.46-.63-.58-1.42-.43m-32.46 5.39a3.83 3.83 0 0 1-.84.26 2.56 2.56 0 0 0-.83.32.92.92 0 0 1-.4.2 6.2 6.2 0 0 0-1.5 1.48 1.08 1.08 0 0 1-.2.39 6 6 0 0 0 .05 4.49 1.69 1.69 0 0 1 .26.51c0 .08.09.17.2.2a.51.51 0 0 1 .27.27c0 .12.1.21.15.21a2 2 0 0 1 .46.29 5.24 5.24 0 0 0 1.5.86 1.94 1.94 0 0 1 .56.27 2.33 2.33 0 0 0 .63.26 3.17 3.17 0 0 1 .79.31 3 3 0 0 0 .56.26 5.5 5.5 0 0 1 2.17 1.8c0 .14.1.25.15.25.41 0 .47 2.56.07 3a1.71 1.71 0 0 0-.25.49 4 4 0 0 1-1.33 1.47 2.58 2.58 0 0 0-.52.29c-.53.4-3.74.27-3.74-.14 0-.05-.13-.11-.29-.14a5.22 5.22 0 0 1-1.71-1.57l-.21-.26-.24.26a2.43 2.43 0 0 0-.42 1.45c0 .22.07.32.33.44l.61.31c1.06.61 4.81 1 5.36.51a2.55 2.55 0 0 1 .73-.28 3.66 3.66 0 0 0 1-.48l.81-.55a.87.87 0 0 0 .34-.29 1.24 1.24 0 0 1 .26-.36 1.13 1.13 0 0 0 .26-.39 1.11 1.11 0 0 1 .27-.43 1.11 1.11 0 0 0 .26-.51 3.46 3.46 0 0 1 .22-.75 5 5 0 0 0 0-3.09 2 2 0 0 1-.23-.58 7.36 7.36 0 0 0-1.39-1.48 2.17 2.17 0 0 0-.64-.38 1.29 1.29 0 0 1-.49-.26.94.94 0 0 0-.45-.22 2.51 2.51 0 0 1-.67-.26 2.8 2.8 0 0 0-.71-.27 1.54 1.54 0 0 1-.61-.25 1.71 1.71 0 0 0-.5-.26c-1.71-.52-3.19-2.92-2.62-4.27a5.22 5.22 0 0 0 .21-.66 3.39 3.39 0 0 1 3.32-2.15c.91 0 1.61.14 1.61.31s.13.13.3.19a3.83 3.83 0 0 1 1.34 1.54l.1.3.29-.51c.67-1.19.38-1.84-1-2.16a2.82 2.82 0 0 1-.71-.26 7.93 7.93 0 0 0-3.07 0m16.75 0c-.22.08-.3.19-.35.5a1.78 1.78 0 0 1-.25.64 1.56 1.56 0 0 0-.26.57 1.71 1.71 0 0 1-.26.58 2.47 2.47 0 0 0-.32.74c-.08.27-.18.5-.23.5a1.26 1.26 0 0 0-.24.52 3 3 0 0 1-.37.8 1 1 0 0 0-.21.51 1 1 0 0 1-.19.48 2.46 2.46 0 0 0-.32.69 1.78 1.78 0 0 1-.26.58 2 2 0 0 0-.28.63 1.6 1.6 0 0 1-.27.61 1 1 0 0 0-.21.45 2.69 2.69 0 0 1-.32.7 1.38 1.38 0 0 0-.25.55c0 .22-.22.71-.32.71s-.11.16-.14.36a1.91 1.91 0 0 1-.26.6 1.63 1.63 0 0 0-.27.58 1.71 1.71 0 0 1-.26.58 1.58 1.58 0 0 0-.27.57 1.86 1.86 0 0 1-.26.59 2 2 0 0 0-.31.67 1.33 1.33 0 0 1-.26.55.94.94 0 0 0-.21.47 1.73 1.73 0 0 1-.26.6 2.13 2.13 0 0 0-.31.66 1.8 1.8 0 0 1-.26.57c-.49.57-.28 1 .46.94h.57l.29-.57a2.69 2.69 0 0 0 .29-.82 2 2 0 0 1 .26-.74 2.38 2.38 0 0 0 .26-.7 2.32 2.32 0 0 1 .26-.71 2.05 2.05 0 0 0 .26-.68 2.75 2.75 0 0 1 .26-.71c.13-.29.33-.75.42-1 .41-1.14.39-1.14 4.26-1.15 3.22 0 3.45 0 3.66.72a6.51 6.51 0 0 0 .31.77 3.09 3.09 0 0 1 .27.73 1.73 1.73 0 0 0 .26.6 1.73 1.73 0 0 1 .26.63 1.65 1.65 0 0 0 .27.63 1.84 1.84 0 0 1 .26.69 1.7 1.7 0 0 0 .27.68 2 2 0 0 1 .26.71c.11.77.43 1 1.4 1 .63 0 1.78-.26 1.3-.3-.07 0-.16-.11-.19-.24s-.51-1.21-.94-2.07a4.68 4.68 0 0 1-.31-.79 1.47 1.47 0 0 0-.22-.47 2.31 2.31 0 0 1-.26-.58 1.78 1.78 0 0 0-.27-.57 1.44 1.44 0 0 1-.21-.48 12.48 12.48 0 0 0-.84-2 5.93 5.93 0 0 1-.32-.84 1.26 1.26 0 0 0-.21-.45 1.26 1.26 0 0 1-.24-.52 2.44 2.44 0 0 0-.26-.6 3.08 3.08 0 0 1-.27-.68 2 2 0 0 0-.27-.63 2.64 2.64 0 0 1-.27-.63 2.26 2.26 0 0 0-.27-.61 1.3 1.3 0 0 1-.2-.52 2 2 0 0 0-.25-.65 3.08 3.08 0 0 1-.31-.68 2.23 2.23 0 0 0-.28-.58 2.19 2.19 0 0 1-.25-.67 2.32 2.32 0 0 0-.32-.77 1 1 0 0 1-.2-.47 1.61 1.61 0 0 0-.22-.59 5.31 5.31 0 0 1-.34-.81c-.12-.4-.14-.42-.41-.32m26.18 0a6.72 6.72 0 0 1-1.2.28 5.11 5.11 0 0 0-1.36.38 2.42 2.42 0 0 1-.59.24 1.51 1.51 0 0 0-.53.27 1.71 1.71 0 0 1-.52.26.35.35 0 0 0-.25.21c-.07.11-.17.21-.25.21a8 8 0 0 0-2 2 1 1 0 0 1-.26.43 1.11 1.11 0 0 0-.26.49 1 1 0 0 1-.19.42 3 3 0 0 0-.33.94 3.63 3.63 0 0 1-.29.94 15.23 15.23 0 0 0 0 4.81 4.34 4.34 0 0 1 .28.93 2.49 2.49 0 0 0 .24.76 2.55 2.55 0 0 1 .27.53 2.31 2.31 0 0 0 .32.57 1.55 1.55 0 0 1 .25.45 10.35 10.35 0 0 0 2.33 2.29c.19.08.35.19.35.25a.11.11 0 0 0 .11.11 4.88 4.88 0 0 1 .78.31 4 4 0 0 0 .84.31 4.9 4.9 0 0 1 .81.24 18.87 18.87 0 0 0 5.38.11 6.15 6.15 0 0 1 1-.28c1.65-.34 2.54-1.09 2.23-1.88-.06-.17-.67 0-.67.24 0 0-.16.14-.35.22a2.16 2.16 0 0 0-.54.33.73.73 0 0 1-.37.19 2.27 2.27 0 0 0-.66.26c-1.18.63-4.87.67-5.74.07a2.47 2.47 0 0 0-.71-.32 1 1 0 0 1-.51-.27.44.44 0 0 0-.28-.2 6.06 6.06 0 0 1-2.13-2.48 5.55 5.55 0 0 0-.32-.53 3.18 3.18 0 0 1-.29-.79c-.08-.34-.23-.88-.32-1.19a21.94 21.94 0 0 1 0-5.31l.3-1.06c.61-2.12 2.52-4.26 4.14-4.66a4.39 4.39 0 0 0 .81-.29 12.13 12.13 0 0 1 4.25 0 2.29 2.29 0 0 0 .58.24 2.72 2.72 0 0 1 .7.33 2.52 2.52 0 0 0 .46.26 6.34 6.34 0 0 1 1 .79c.46.42.67.2.78-.82.09-.77.17-.68-.72-.86a.94.94 0 0 1-.4-.2 2.83 2.83 0 0 0-1-.26 6.82 6.82 0 0 1-1.24-.27 12.66 12.66 0 0 0-4 0m18 0a5.72 5.72 0 0 1-1.11.26 2.9 2.9 0 0 0-.92.26 2.19 2.19 0 0 1-.63.26 2.17 2.17 0 0 0-.68.31 1.47 1.47 0 0 1-.47.27 1 1 0 0 0-.4.27.43.43 0 0 1-.27.2.71.71 0 0 0-.35.25 1.81 1.81 0 0 1-.37.34 9.27 9.27 0 0 0-2.17 3.42 3 3 0 0 1-.24.74 17.51 17.51 0 0 0-.07 5.63 2.08 2.08 0 0 1 .25.63 9.88 9.88 0 0 0 .77 1.84 8.51 8.51 0 0 0 2.63 2.7 2.41 2.41 0 0 1 .43.29 2.46 2.46 0 0 0 .47.2 2 2 0 0 1 .58.27 2.31 2.31 0 0 0 .74.26 7.48 7.48 0 0 1 1 .29 19.18 19.18 0 0 0 6-.06 4.14 4.14 0 0 1 .89-.24 2.07 2.07 0 0 0 .73-.26 2.72 2.72 0 0 1 .62-.26 1.42 1.42 0 0 0 .47-.26 1.3 1.3 0 0 1 .45-.26.58.58 0 0 0 .28-.18c.1-.1.38-.34.62-.55a8.57 8.57 0 0 0 2.15-3.08.64.64 0 0 1 .15-.28 3.67 3.67 0 0 0 .32-1.16c.09-.55.21-1.16.27-1.36a7.27 7.27 0 0 0 0-2.42c-.06-.31-.17-1-.25-1.49a3.38 3.38 0 0 0-.3-1.1 2.26 2.26 0 0 1-.28-.6 2.79 2.79 0 0 0-.33-.67 1 1 0 0 1-.2-.35 1.77 1.77 0 0 0-.31-.5 2.27 2.27 0 0 1-.31-.46 9.14 9.14 0 0 0-2.26-1.85.56.56 0 0 1-.31-.21.67.67 0 0 0-.37-.21 2.68 2.68 0 0 1-.69-.25 5.59 5.59 0 0 0-1.3-.38 8.9 8.9 0 0 1-1.2-.27 13.13 13.13 0 0 0-4 0m-32.51.43a1 1 0 0 0 0 .41l.07 9v8.7h1.08c1.31 0 1.22.15 1.09-1.85-.17-2.43-.23-10.65-.1-12.57l.14-2.72v-1h-.92c-.87 0-1.15 0-1.19.13m36.93.37a3 3 0 0 0 .68.24 5.29 5.29 0 0 1 1.66.91 6.25 6.25 0 0 1 1.7 1.83.45.45 0 0 0 .15.25 1.37 1.37 0 0 1 .28.56 1.75 1.75 0 0 0 .27.61 3.14 3.14 0 0 1 .29.94 6.82 6.82 0 0 0 .27 1.09 15.1 15.1 0 0 1 0 4.45 4.8 4.8 0 0 0-.24 1.07 2 2 0 0 1-.28.86 1.78 1.78 0 0 0-.27.61 1.81 1.81 0 0 1-.31.64 1.16 1.16 0 0 0-.25.41.72.72 0 0 1-.21.33l-.7.73a6 6 0 0 1-1.9 1.33.64.64 0 0 0-.34.17c-.67.6-5.28.63-6.1 0a1 1 0 0 0-.49-.21 1.11 1.11 0 0 1-.51-.26 1.18 1.18 0 0 0-.42-.26c-.51 0-2.64-2.85-2.64-3.53a3 3 0 0 0-.23-.65c-.47-1-.52-6.16-.07-6.85a2.1 2.1 0 0 0 .24-.61c.1-.5.27-.95.38-.95s.11-.14.15-.32a1.56 1.56 0 0 1 .32-.59 1.31 1.31 0 0 0 .25-.33 7 7 0 0 1 1.91-1.74 6.8 6.8 0 0 0 .61-.32 10.3 10.3 0 0 1 1.63-.58 16.52 16.52 0 0 1 4.19.13m-48.81 3.1a1.4 1.4 0 0 1 .36.73.79.79 0 0 0 .21.48c.08 0 .19.28.26.55a2.67 2.67 0 0 0 .32.75 1.68 1.68 0 0 1 .27.59 1.31 1.31 0 0 0 .21.49 2.64 2.64 0 0 1 .27.63 2.06 2.06 0 0 0 .28.64 2.06 2.06 0 0 1 .34 1.4c-.15.38-.45.42-2.91.41-2.86 0-3.28-.18-2.85-1.08a18.16 18.16 0 0 0 .78-1.79 1.5 1.5 0 0 1 .21-.42 1.28 1.28 0 0 0 .21-.47 4.11 4.11 0 0 1 .33-.75 1.92 1.92 0 0 0 .25-.62 1.78 1.78 0 0 1 .26-.62 1.94 1.94 0 0 0 .26-.58c0-.58.51-.76.94-.34" fill-rule="evenodd" fill="#2a466a"/></svg>