<svg id="Layer_1" xmlns="http://www.w3.org/2000/svg" viewBox="0 0 198.5 99.8"><style>.st0{fill:#aea9af}.st1{fill:#29367b}.st2{fill:#b1aeb3}.st3{fill:#d0da33}.st4{fill:#71ba44}.st5{fill:#27b8be}.st6{fill:#58b75e}.st7{fill:#3088c8}.st8{fill:#1e3871}.st9{fill:#727a82}</style><title>vision2030</title><g id="Layer_2_1_"><g id="Layer_1-2"><path class="st0" d="M141.5 75.4c0 9.7-7 16.7-18.3 16.7-9.2 0-15.5-3.6-19.8-8.8L111 76c3.5 3.9 7.1 6.1 12.3 6.1 4.2 0 7.2-2.4 7.2-6.2-.1-.1.8-6.6-10-6.6h-4.7l-1.7-7.1 16.3-16.4-6.5 4.2h-17.6v-9.6h34.4v8.4l-12.9 12.3c6.9 1.2 13.7 4.8 13.7 14.3m-31.9-58.1c0-4.6 3.3-8.3 7.9-8.3h5.2l-1.4.7c.1 12.6-.2 14.2.6 16h-4.4c-4.6 0-7.9-3.8-7.9-8.4zm7.9 10.5h4.6v-1.7c.3.6.9 1.1 1.5 1.4 1.5.7.4.3 42.7.4v-21h-2.2v18.8s-38.7.1-39.4-.2c-.6-.3-1-.9-1-1.6-.2-1.1-.1-1.2-.1-17h-6c-5.7-.1-10.3 4.5-10.4 10.2v.4c-.1 5.6 4.3 10.2 9.9 10.3h.4m65.2-23.2h-4.9c.2-1.6-.6-4.6 2.7-4.6h1.6v1.6c-1.5.1-2.4-.4-2.4.8v.5h3.1v1.7h-.1zm5.7 23.5c-.6 0-1.2-.1-1.8-.3l.6-2.1c1 .3 2.3.3 2.8-.6.6-1.1.4-1.4.4-18.2h2.2c-.1 15.7.2 16.1-.2 17.9-.2 2-2 3.5-4 3.3M123.6 4.6h-2.2V2.4h2.2v2.2zm49.1 7.7c1.1-2 3.2-3.2 5.5-3.2h3.6l-1.3.6v10c-1.8-.1-3 .2-4.6-.3-2.2-.6-3.7-2.6-3.7-4.9 0-.8.1-1.5.5-2.2m0 7.9c2.9 2.1 6.9 1.7 7.1 1.8l.8-1.6c-.1 1.5.4 3.7-1 4.7-1.2.9-3.3.9-4.7.6-.7-.2-1.3-.4-1.9-.7l-.7 2.1c1.4.5 2.8.9 4.3.9 2.2 0 3.8-.5 4.7-1.5 1.1-1.1 1.6-2.7 1.5-4.2V6.9c-2.7.1-4.8-.3-7.3.6-6.8 2.3-6.9 9.8-2.8 12.7M119.1 4.6h-2.2V2.4h2.2v2.2zM96 6.8h2.3v20.9h-1.9L81.6 8.9l1.3 3v15.8h-2.3V6.8h2.2l14.2 18-1-2.6V6.8zM9 27.9L0 6.8h2.6c.1.3 7.3 17.7 8 19.4l-.2-2.2 7.1-17.1H20L11 28c-.7-.1-1.3-.1-2-.1zM48.9 6.8h2.4v20.9h-2.4V6.8zm25.4 10.5c0 4.8-3.4 8.6-8.2 8.6-4.6 0-8.3-3.8-8.3-8.4v-.3c0-4.7 3.4-8.6 8.2-8.6 4.7.1 8.4 3.9 8.3 8.6v.1zM66.1 6.5c-5.8-.1-10.6 4.6-10.7 10.4v.5c0 5.9 4.8 10.7 10.7 10.7s10.7-4.8 10.7-10.7v-.1c-.1-5.8-4.3-10.8-10.7-10.8M45 22.1c0 3.6-3 6-7.2 6-3.2 0-6.2-1.2-8.6-3.3l1.5-1.7c1.9 1.9 4.5 3 7.2 3 2.8 0 4.7-1.5 4.7-3.6v-.1c0-5.8-12.5-2-12.5-10v-.1C30.1 9 33 6.6 37 6.6c2.7-.1 5.3.9 7.4 2.6L43 10.9C38.3 7.1 32.5 8.5 32.5 12v.1c0 2 1.1 3.1 5.7 4.1s6.8 2.7 6.8 5.9m-19.3 5.6h-2.4V6.8h2.4v20.9zm137.6 2.4h2.2v2.2h-2.2v-2.2zm-4.5 0h2.2v2.2h-2.2v-2.2zM18.7 81.6h19.4v9.6H.5v-8.8c18.8-16 25.7-19.1 25.7-26 0-4.3-2.8-6.6-6.8-6.6S12.8 52 9 56.6l-7.8-6.3c5-6.8 9.9-10.5 19-10.5 10.5 0 17.5 6.2 17.5 15.7v.1c0 11.9-9 15.8-24.5 28.2L11 85.5l7.7-3.9zm168-15.6c0 8.7-6.2 15.8-15.3 15.8s-15.4-7.3-15.4-16v-.1c0-8.7 6.3-15.8 15.3-15.8s15.4 7.3 15.4 16.1zm-15.2-26.4c-15.7 0-27.1 11.8-27.1 26.3v.1c0 14.4 11.3 26.1 27 26.1s27.1-11.8 27.1-26.3v-.1c-.1-14.4-11.3-26.1-27-26.1"/><path class="st1" d="M68.5 36.3l2.6 2.5-2.5 2.6-2.6-2.6"/><path class="st2" d="M74.4 38.8l2.6 2.5 2.5-2.6-2.6-2.5"/><path class="st3" d="M70.8 42.1l2 1.9 1.9-2-2-1.9"/><path class="st4" d="M78.1 43.2l2 1.9 1.9-2-2-1.9"/><path class="st3" d="M67.5 45.1l2 1.9 1.9-2-2-1.9"/><path class="st5" d="M74.2 45.4l2 1.9 1.9-2-2-1.9"/><path class="st4" d="M71.6 47.7L73 49l1.4-1.4-1.4-1.3"/><path class="st6" d="M76.9 48.7l1.4 1.4 1.4-1.4-1.4-1.4"/><path class="st7" d="M88.6 38l4.4-.8.8 4.4-4.4.8-.8-4.4z"/><path class="st8" d="M82.8 39.9l3.5-.6.6 3.5-3.5.6-.6-3.5z"/><path class="st5" d="M89.6 44.7l3.5-.6.6 3.5-3.5.6-.6-3.5z"/><path class="st3" d="M84.8 45.3l2.7-.5.5 2.7-2.7.5-.5-2.7z"/><path class="st2" d="M90.1 50.4l2.7-.5.5 2.7-2.7.5-.5-2.7z"/><path class="st5" d="M80.7 46.4l2.7-.5.5 2.7-2.7.5-.5-2.7z"/><path class="st4" d="M85.7 49.9l2.7-.5.5 2.7-2.7.5-.5-2.7z"/><path class="st2" d="M82.2 50.3l1.9-.4.4 1.9-1.9.4-.4-1.9z"/><path class="st6" d="M85.9 54.2l1.9-.4.4 1.9-1.9.4-.4-1.9z"/><path class="st1" d="M101.6 52.3l-1.9 4 4 1.9 1.9-4"/><path class="st5" d="M95.9 50.5l-1.5 3.2 3.2 1.5 1.5-3.2"/><path class="st4" d="M98.5 58.4L97 61.6l3.2 1.5 1.5-3.2"/><path class="st3" d="M94.3 56l-1.2 2.5 2.5 1.2 1.2-2.5m-1.2 6.1l-1.2 2.5 2.5 1.2 1.2-2.5"/><path class="st7" d="M90.3 54.5L89.1 57l2.5 1.2 1.2-2.5"/><path class="st2" d="M92.2 60.3L91 62.8l2.5 1.2 1.2-2.5"/><path class="st4" d="M89.2 58.5l-.8 1.8 1.8.8.8-1.8"/><path class="st5" d="M89 65.7l.8-1.8 1.8.8-.8 1.8-1.8-.8z"/><path class="st7" d="M103.7 71.6l-3.9 2.1 2.1 3.9 3.9-2.1"/><path class="st5" d="M100.2 66.7l-3.1 1.7 1.7 3.1 3.1-1.7m-4.2 4.9l-3.1 1.7 1.7 3.1 3.1-1.7"/><path class="st1" d="M95.7 70.3l-2.4 1.3 1.3 2.4 2.4-1.3"/><path class="st6" d="M92.4 76.9L90 78.3l1.3 2.4 2.4-1.3"/><path class="st8" d="M93.3 66.7L90.9 68l1.3 2.4 2.4-1.3"/><path class="st3" d="M91.5 72.6l-2.4 1.3 1.3 2.4 2.4-1.3"/><path class="st2" d="M90.1 69.4l-1.7.9.9 1.7 1.7-.9"/><path class="st5" d="M87.5 74.1l-1.7.9.9 1.7 1.7-.9"/><path class="st4" d="M89.3 92.2l.5-4.4 4.4.5-.5 4.4-4.4-.5z"/><path class="st8" d="M90.2 85.5l.4-3.5 3.5.4-.4 3.5-3.5-.4z"/><path class="st5" d="M83.5 90.5L84 87l3.5.4-.4 3.5-3.6-.4z"/><path class="st4" d="M85.4 85.1l.3-2.8 2.8.3-.3 2.8-2.8-.3z"/><path class="st2" d="M78.8 88.6l.3-2.8 2.8.3-.3 2.8-2.8-.3zm6.7-7.8l.3-2.8 2.8.3-.3 2.8-2.8-.3z"/><path class="st4" d="M80.6 84.5l.3-2.8 2.8.3-.3 2.8-2.8-.3z"/><path class="st2" d="M82.3 80.4l.2-1.9 1.9.2-.2 1.9-1.9-.2zm-4.9 2.3l.2-1.9 1.9.2-.2 1.9-1.9-.2z"/><path class="st3" d="M76.7 96.5l-3.3-3-3 3.3 3.3 3"/><path class="st4" d="M76.1 34.3l-3.3-3-3 3.3 3.3 3"/><path class="st5" d="M80.1 91.6l-2.6-2.4-2.4 2.6 2.6 2.4"/><path class="st4" d="M71.8 91.8l-2.6-2.4-2.5 2.6 2.6 2.4"/><path class="st7" d="M75.3 88.5l-2-1.9-1.9 2 2 1.9"/><path class="st3" d="M68 87.5l-2-1.9-1.9 2 2 1.9M78 85.1l-2-1.9-1.9 2 2 1.9"/><path class="st2" d="M71.8 85.2l-2-1.9-1.9 2 2 1.9"/><path class="st8" d="M74.4 82.9L73 81.6 71.7 83l1.4 1.3"/><path class="st2" d="M69.1 81.9l-1.4-1.3-1.4 1.4 1.4 1.3"/><path class="st7" d="M52.4 89.3l4.4-.9.9 4.4-4.4.9-.9-4.4z"/><path class="st5" d="M59.1 88.1l3.5-.7.7 3.5-3.5.7-.7-3.5z"/><path class="st4" d="M52.3 83.3l3.5-.7.7 3.5-3.5.7-.7-3.5z"/><path class="st3" d="M58 83.3l2.7-.5.5 2.7-2.7.5-.5-2.7z"/><path class="st1" d="M62.1 82.2l2.7-.5.5 2.7-2.7.5-.5-2.7z"/><path class="st7" d="M57.1 78.7l2.7-.5.5 2.7-2.7.5-.5-2.7z"/><path class="st4" d="M61.5 78.9l1.9-.4.4 1.9-1.9.4-.4-1.9z"/><path class="st2" d="M57.8 75l1.9-.4.4 1.9-1.9.4-.4-1.9z"/><path class="st5" d="M44.4 78.7l1.8-4-4.1-1.8-1.8 4"/><path class="st3" d="M50.1 80.5l1.5-3.2-3.2-1.5-1.5 3.2"/><path class="st7" d="M47.4 72.6l1.5-3.2-3.2-1.5-1.5 3.2"/><path class="st5" d="M49.1 73.8l1.2-2.5 2.5 1.2-1.2 2.5-2.5-1.2z"/><path class="st2" d="M55 81.2l1.2-2.5-2.5-1.2-1.2 2.5"/><path class="st1" d="M47.7 66.5l1.2-2.5 2.5 1.2-1.2 2.5-2.5-1.2z"/><path class="st6" d="M53.1 75.2l1.2-2.5 2.5 1.2-1.2 2.5-2.5-1.2z"/><path class="st3" d="M51.1 69.5l1.2-2.5 2.5 1.2-1.2 2.5-2.5-1.2z"/><path class="st8" d="M56.6 72.3l.8-1.8-1.8-.8-.8 1.8"/><path class="st4" d="M55.9 66.9l.8-1.8-1.8-.8-.8 1.8"/><path class="st5" d="M41.9 59.5l3.9-2.2-2.2-3.9-3.9 2.2"/><path class="st4" d="M45.5 64.3l3.1-1.8-1.8-3.1-3.1 1.8"/><path class="st8" d="M47.9 56.3l3.1-1.8-1.8-3.1-3.1 1.8"/><path class="st7" d="M50 60.7l2.4-1.4-1.4-2.4-2.4 1.4"/><path class="st4" d="M53.1 54l2.4-1.4-1.4-2.4-2.4 1.4"/><path class="st5" d="M52.4 64.2l2.4-1.4-1.4-2.4-2.4 1.4"/><path class="st3" d="M54.1 58.3l2.4-1.4-1.4-2.4-2.4 1.4"/><path class="st2" d="M55.6 61.5l1.7-1-1-1.7-1.7 1"/><path class="st4" d="M58.1 56.7l1.7-1-1-1.7-1.7 1m-6-12.4l.5-4.4 4.4.5-.4 4.3-4.5-.4z"/><path class="st2" d="M51.3 48.5l.4-3.5 3.6.4-.4 3.5-3.6-.4z"/><path class="st5" d="M57.9 43.4l.4-3.5 3.6.4-.4 3.5-3.6-.4z"/><path class="st3" d="M57 48.2l.3-2.8 2.8.3-.3 2.8-2.8-.3z"/><path class="st7" d="M63.5 44.6l.3-2.8 2.8.3-.3 2.8-2.8-.3z"/><path class="st5" d="M56.9 52.4l.3-2.8 2.8.4-.3 2.8-2.8-.4z"/><path class="st4" d="M61.7 48.7l.3-2.8 2.8.3-.3 2.8-2.8-.3z"/><path class="st8" d="M61.1 52.1l.2-1.9 1.9.2-.2 1.9-1.9-.2z"/><path class="st2" d="M65.9 49.7l.2-1.9 1.9.2-.2 1.9-1.9-.2z"/><path class="st9" d="M86.9 68.2c-2.8-1.4-6-1.6-8.9-.5-1.5.6-2.9 1.5-4.2 2.5-.6-3.7-.6-7.5-.2-11.3 1.7 1.1 1.2 4 .9 4.8 1.5-1.6 1.7-4 .6-5.9.3.2.6.5.8.8.8 1.1 1.2 2.5.9 3.9 1.1-2.1.5-4.6-1.3-6.1-.1-.1.3 0 .4.1 1.6.6 2.6 2.2 2.6 3.9.7-1.7 0-3.7-1.6-4.6-.4-.3-.9-.4-1.4-.5.9-.2 1.9 0 2.7.5.7.5.9 1.1.9.9-.2-2.2-2.8-3.1-4.4-2.4.4-.7 1.3-1.1 2.1-1 .3 0 .6.1.8.2-.8-1.1-2.3-1.3-3.4-.5-.2.2-.4.4-.6.7-.4-.7-.7-1.6-.8-2.4-.2.8-.5 1.6-.9 2.4-.7-1.1-2.2-1.5-3.3-.8-.3.2-.5.4-.7.6 1-.5 2.3-.1 2.9.8-1.6-.7-4.2.2-4.4 2.4.2-.3.4-.5.6-.7.9-.6 1.9-.9 3-.8-1.3.2-2.5 1.1-3 2.4-.5 1.3 0 3.1 0 2.6 0-1.8 1.2-3.4 2.9-3.9-1.8 1.5-2.4 4-1.3 6.1-.3-1.8.3-3.5 1.7-4.7-1 1.9-.8 4.2.6 5.9-.4-.8-.8-3.8.9-4.8.4 3.8.4 7.6-.2 11.3-2.7-2-5.3-3.4-8.6-3.2-1.6.1-3.1.5-4.5 1.2v.1c4.9-1.6 9.1.3 13.1 3.6-2 1.7-3.8 3.6-4.8 4.1-.4-.5-1.1-.5-1.6-.2-.5.4-.5 1.1-.1 1.6 1.7 1.7 4.4-1.7 7.6-4.5 3.1 2.7 5.9 6.3 7.6 4.5.2-.3.3-.6.2-.9-.1-.6-.7-1-1.3-.8-.3.1-.5.2-.7.4-1-.5-2.8-2.3-4.8-4.1 4.1-3.3 8.3-5.1 13.2-3.7"/></g></g></svg>